<svg xmlns="http://www.w3.org/2000/svg" xmlns:xlink="http://www.w3.org/1999/xlink" viewBox="0 0 22.86 21.52"><defs><style>.cls-1,.cls-3{fill:none;}.cls-2{clip-path:url(#clip-path);}.cls-3{stroke:#231f20;stroke-linecap:round;stroke-miterlimit:10;}</style><clipPath id="clip-path" transform="translate(0.07)"><polygon class="cls-1" points="0 21.94 17 21.94 18 4.94 0 4.94 0 21.94"/></clipPath></defs><g id="Layer_2" data-name="Layer 2"><g id="Layer_1-2" data-name="Layer 1"><g class="cls-2"><path d="M11.34,6.93a3,3,0,1,1,4.17,4.18l-2.72,2.72a3,3,0,0,1-4.41-.27.56.56,0,1,0-.88.7,4.08,4.08,0,0,0,6.09.36L16.3,11.9c3.85-3.84-1.92-9.6-5.76-5.76L8.29,8.39a.56.56,0,0,0,.8.79Z" transform="translate(0.07)"/><path d="M4.71,12.56a3,3,0,0,1,4.41.26.56.56,0,1,0,.88-.69,4.08,4.08,0,0,0-6.09-.37L1.19,14.48C-2.65,18.33,3.12,24.09,7,20.25L9.21,18a.56.56,0,1,0-.8-.79L6.16,19.46C3.38,22.24-.79,18.06,2,15.28Z" transform="translate(0.07)"/></g><line class="cls-3" x1="15.44" y1="3.91" x2="16.55" y2="0.5"/><line class="cls-3" x1="17.35" y1="5.05" x2="21.77" y2="0.51"/><line class="cls-3" x1="18.65" y1="7.08" x2="22.36" y2="5.95"/></g></g></svg>