{
  "accessors": [
    {
      "bufferView": 2,
      "componentType": 5126,
      "count": 8981,
      "max": [
        0.9388759732246399,
        0.975180983543396,
        1.0
      ],
      "min": [
        -0.9388759732246399,
        -0.975180983543396,
        -1.0
      ],
      "type": "VEC3"
    },
    {
      "bufferView": 2,
      "byteOffset": 107772,
      "componentType": 5126,
      "count": 8981,
      "max": [
        0.9998598694801331,
        0.9999804496765137,
        0.9999607801437378
      ],
      "min": [
        -0.9999827742576599,
        -0.9999947547912598,
        -0.999907374382019
      ],
      "type": "VEC3"
    },
    {
      "bufferView": 3,
      "componentType": 5126,
      "count": 8981,
      "max": [
        0.9999644756317139,
        0.9999991655349731,
        0.9999974370002747,
        1.0
      ],
      "min": [
        -0.9990144968032837,
        -0.9997826814651489,
        -0.9999491572380066,
        -1.0
      ],
      "type": "VEC4"
    },
    {
      "bufferView": 1,
      "componentType": 5126,
      "count": 8981,
      "max": [
        0.9999989867210388,
        0.9801700115203857
      ],
      "min": [
        0.0,
        0.0
      ],
      "type": "VEC2"
    },
    {
      "bufferView": 0,
      "componentType": 5125,
      "count": 22695,
      "type": "SCALAR"
    }
  ],
  "asset": {
    "extras": {
      "author": "wyhinton (https://sketchfab.com/wyhinton)",
      "license": "CC-BY-4.0 (http://creativecommons.org/licenses/by/4.0/)",
      "source": "https://sketchfab.com/3d-models/eager-rhizome-demo-model-c147bce398c24fee8c44872842e164a0",
      "title": "EAGER RHIZOME DEMO MODEL"
    },
    "generator": "Sketchfab-11.53.2",
    "version": "2.0"
  },
  "bufferViews": [
    {
      "buffer": 0,
      "byteLength": 90780,
      "name": "floatBufferViews",
      "target": 34963
    },
    {
      "buffer": 0,
      "byteLength": 71848,
      "byteOffset": 90780,
      "byteStride": 8,
      "name": "floatBufferViews",
      "target": 34962
    },
    {
      "buffer": 0,
      "byteLength": 215544,
      "byteOffset": 162628,
      "byteStride": 12,
      "name": "floatBufferViews",
      "target": 34962
    },
    {
      "buffer": 0,
      "byteLength": 143696,
      "byteOffset": 378172,
      "byteStride": 16,
      "name": "floatBufferViews",
      "target": 34962
    }
  ],
  "buffers": [
    {
      "byteLength": 521868,
      "uri": "scene.bin"
    }
  ],
  "images": [
    {
      "uri": "textures/Default_OBJ_002_baseColor.jpeg"
    },
    {
      "uri": "textures/Default_OBJ_002_metallicRoughness.png"
    },
    {
      "uri": "textures/Default_OBJ_002_normal.png"
    }
  ],
  "materials": [
    {
      "doubleSided": true,
      "name": "Default_OBJ_002",
      "normalTexture": {
        "index": 2
      },
      "occlusionTexture": {
        "index": 1
      },
      "pbrMetallicRoughness": {
        "baseColorTexture": {
          "index": 0
        },
        "metallicRoughnessTexture": {
          "index": 1
        }
      }
    }
  ],
  "meshes": [
    {
      "name": "defaultMaterial",
      "primitives": [
        {
          "attributes": {
            "NORMAL": 1,
            "POSITION": 0,
            "TANGENT": 2,
            "TEXCOORD_0": 3
          },
          "indices": 4,
          "material": 0,
          "mode": 4
        }
      ]
    }
  ],
  "nodes": [
    {
      "children": [
        1
      ],
      "matrix": [
        1.0,
        0.0,
        0.0,
        0.0,
        0.0,
        2.220446049250313e-16,
        -1.0,
        0.0,
        0.0,
        1.0,
        2.220446049250313e-16,
        0.0,
        0.0,
        0.0,
        0.0,
        1.0
      ],
      "name": "Sketchfab_model"
    },
    {
      "children": [
        2
      ],
      "matrix": [
        1.0,
        0.0,
        0.0,
        0.0,
        0.0,
        -4.371139006309477e-08,
        0.999999999999999,
        0.0,
        0.0,
        -0.999999999999999,
        -4.371139006309477e-08,
        0.0,
        0.0,
        0.0,
        0.0,
        1.0
      ],
      "name": "Collada visual scene group"
    },
    {
      "children": [
        3
      ],
      "name": "Mesh.003"
    },
    {
      "mesh": 0,
      "name": "defaultMaterial"
    }
  ],
  "samplers": [
    {
      "magFilter": 9729,
      "minFilter": 9987,
      "wrapS": 10497,
      "wrapT": 10497
    }
  ],
  "scene": 0,
  "scenes": [
    {
      "name": "Sketchfab_Scene",
      "nodes": [
        0
      ]
    }
  ],
  "textures": [
    {
      "sampler": 0,
      "source": 0
    },
    {
      "sampler": 0,
      "source": 1
    },
    {
      "sampler": 0,
      "source": 2
    }
  ]
}
